<mxfile host="app.diagrams.net" modified="2023-03-07T18:30:33.649Z" agent="5.0 (X11; Linux x86_64) AppleWebKit/537.36 (KHTML, like Gecko) Chrome/110.0.0.0 Safari/537.36" etag="xeyIosS8mwYC6b8NkNMm" version="20.8.23" type="github">
  <diagram name="Page-1" id="w1e5iBH41F0s89eqLAKd">
    <mxGraphModel dx="819" dy="434" grid="1" gridSize="10" guides="1" tooltips="1" connect="1" arrows="1" fold="1" page="1" pageScale="1" pageWidth="827" pageHeight="1169" math="0" shadow="0">
      <root>
        <mxCell id="0" />
        <mxCell id="1" parent="0" />
        <mxCell id="BLmyIP-7RwuMe4oR3W1--5" value="" style="edgeStyle=orthogonalEdgeStyle;rounded=0;orthogonalLoop=1;jettySize=auto;html=1;" edge="1" parent="1" source="BLmyIP-7RwuMe4oR3W1--1" target="BLmyIP-7RwuMe4oR3W1--4">
          <mxGeometry relative="1" as="geometry">
            <Array as="points">
              <mxPoint x="250" y="260" />
              <mxPoint x="250" y="210" />
            </Array>
          </mxGeometry>
        </mxCell>
        <mxCell id="BLmyIP-7RwuMe4oR3W1--1" value="Guest" style="shape=umlActor;verticalLabelPosition=bottom;verticalAlign=top;html=1;outlineConnect=0;" vertex="1" parent="1">
          <mxGeometry x="160" y="220" width="30" height="60" as="geometry" />
        </mxCell>
        <mxCell id="BLmyIP-7RwuMe4oR3W1--2" value="Receptionist" style="shape=umlActor;verticalLabelPosition=bottom;verticalAlign=top;html=1;outlineConnect=0;" vertex="1" parent="1">
          <mxGeometry x="160" y="370.2" width="30" height="60" as="geometry" />
        </mxCell>
        <mxCell id="BLmyIP-7RwuMe4oR3W1--3" value="Admin" style="shape=umlActor;verticalLabelPosition=bottom;verticalAlign=top;html=1;outlineConnect=0;" vertex="1" parent="1">
          <mxGeometry x="160" y="520.29" width="30" height="60" as="geometry" />
        </mxCell>
        <mxCell id="BLmyIP-7RwuMe4oR3W1--4" value="make booking" style="rounded=1;whiteSpace=wrap;html=1;verticalAlign=top;" vertex="1" parent="1">
          <mxGeometry x="270" y="200" width="120" height="20" as="geometry" />
        </mxCell>
        <mxCell id="BLmyIP-7RwuMe4oR3W1--13" value="cancel booking" style="rounded=1;whiteSpace=wrap;html=1;verticalAlign=top;" vertex="1" parent="1">
          <mxGeometry x="270" y="230" width="120" height="20" as="geometry" />
        </mxCell>
        <mxCell id="BLmyIP-7RwuMe4oR3W1--14" value="check availability" style="rounded=1;whiteSpace=wrap;html=1;verticalAlign=top;" vertex="1" parent="1">
          <mxGeometry x="270" y="260" width="120" height="20" as="geometry" />
        </mxCell>
        <mxCell id="BLmyIP-7RwuMe4oR3W1--15" value="payment" style="rounded=1;whiteSpace=wrap;html=1;verticalAlign=top;" vertex="1" parent="1">
          <mxGeometry x="270" y="290" width="120" height="20" as="geometry" />
        </mxCell>
        <mxCell id="BLmyIP-7RwuMe4oR3W1--17" value="" style="endArrow=classic;html=1;rounded=0;entryX=0;entryY=0.5;entryDx=0;entryDy=0;endFill=1;" edge="1" parent="1" target="BLmyIP-7RwuMe4oR3W1--13">
          <mxGeometry width="50" height="50" relative="1" as="geometry">
            <mxPoint x="250" y="240" as="sourcePoint" />
            <mxPoint x="310" y="310" as="targetPoint" />
          </mxGeometry>
        </mxCell>
        <mxCell id="BLmyIP-7RwuMe4oR3W1--18" value="" style="endArrow=classic;html=1;rounded=0;entryX=0;entryY=0.5;entryDx=0;entryDy=0;endFill=1;" edge="1" parent="1" target="BLmyIP-7RwuMe4oR3W1--14">
          <mxGeometry width="50" height="50" relative="1" as="geometry">
            <mxPoint x="250" y="270" as="sourcePoint" />
            <mxPoint x="330" y="290" as="targetPoint" />
          </mxGeometry>
        </mxCell>
        <mxCell id="BLmyIP-7RwuMe4oR3W1--20" value="" style="endArrow=classic;html=1;rounded=0;entryX=0;entryY=0.5;entryDx=0;entryDy=0;endFill=1;" edge="1" parent="1" target="BLmyIP-7RwuMe4oR3W1--15">
          <mxGeometry width="50" height="50" relative="1" as="geometry">
            <mxPoint x="250" y="300" as="sourcePoint" />
            <mxPoint x="330" y="290" as="targetPoint" />
          </mxGeometry>
        </mxCell>
        <mxCell id="BLmyIP-7RwuMe4oR3W1--21" value="" style="endArrow=none;html=1;rounded=0;" edge="1" parent="1">
          <mxGeometry width="50" height="50" relative="1" as="geometry">
            <mxPoint x="250" y="300" as="sourcePoint" />
            <mxPoint x="250" y="260" as="targetPoint" />
          </mxGeometry>
        </mxCell>
        <mxCell id="BLmyIP-7RwuMe4oR3W1--22" value="" style="edgeStyle=orthogonalEdgeStyle;rounded=0;orthogonalLoop=1;jettySize=auto;html=1;" edge="1" parent="1" target="BLmyIP-7RwuMe4oR3W1--23">
          <mxGeometry relative="1" as="geometry">
            <mxPoint x="190" y="400" as="sourcePoint" />
            <Array as="points">
              <mxPoint x="250" y="400" />
              <mxPoint x="250" y="350" />
            </Array>
          </mxGeometry>
        </mxCell>
        <mxCell id="BLmyIP-7RwuMe4oR3W1--23" value="check in&lt;span style=&quot;white-space: pre;&quot;&gt;	&lt;/span&gt;" style="rounded=1;whiteSpace=wrap;html=1;verticalAlign=top;" vertex="1" parent="1">
          <mxGeometry x="270" y="340" width="120" height="20" as="geometry" />
        </mxCell>
        <mxCell id="BLmyIP-7RwuMe4oR3W1--24" value="check out" style="rounded=1;whiteSpace=wrap;html=1;verticalAlign=top;" vertex="1" parent="1">
          <mxGeometry x="270" y="370" width="120" height="20" as="geometry" />
        </mxCell>
        <mxCell id="BLmyIP-7RwuMe4oR3W1--25" value="check booking" style="rounded=1;whiteSpace=wrap;html=1;verticalAlign=top;" vertex="1" parent="1">
          <mxGeometry x="270" y="400" width="120" height="20" as="geometry" />
        </mxCell>
        <mxCell id="BLmyIP-7RwuMe4oR3W1--26" value="" style="endArrow=classic;html=1;rounded=0;entryX=0;entryY=0.5;entryDx=0;entryDy=0;endFill=1;" edge="1" parent="1" target="BLmyIP-7RwuMe4oR3W1--24">
          <mxGeometry width="50" height="50" relative="1" as="geometry">
            <mxPoint x="250" y="380" as="sourcePoint" />
            <mxPoint x="310" y="450" as="targetPoint" />
          </mxGeometry>
        </mxCell>
        <mxCell id="BLmyIP-7RwuMe4oR3W1--27" value="" style="endArrow=classic;html=1;rounded=0;entryX=0;entryY=0.5;entryDx=0;entryDy=0;endFill=1;" edge="1" parent="1" target="BLmyIP-7RwuMe4oR3W1--25">
          <mxGeometry width="50" height="50" relative="1" as="geometry">
            <mxPoint x="250" y="410" as="sourcePoint" />
            <mxPoint x="330" y="430" as="targetPoint" />
          </mxGeometry>
        </mxCell>
        <mxCell id="BLmyIP-7RwuMe4oR3W1--29" value="" style="endArrow=none;html=1;rounded=0;" edge="1" parent="1">
          <mxGeometry width="50" height="50" relative="1" as="geometry">
            <mxPoint x="250" y="440" as="sourcePoint" />
            <mxPoint x="250" y="400" as="targetPoint" />
          </mxGeometry>
        </mxCell>
        <mxCell id="BLmyIP-7RwuMe4oR3W1--30" value="" style="edgeStyle=orthogonalEdgeStyle;rounded=0;orthogonalLoop=1;jettySize=auto;html=1;" edge="1" parent="1" target="BLmyIP-7RwuMe4oR3W1--31">
          <mxGeometry relative="1" as="geometry">
            <mxPoint x="190" y="560" as="sourcePoint" />
            <Array as="points">
              <mxPoint x="250" y="560" />
              <mxPoint x="250" y="510" />
            </Array>
          </mxGeometry>
        </mxCell>
        <mxCell id="BLmyIP-7RwuMe4oR3W1--31" value="update database" style="rounded=1;whiteSpace=wrap;html=1;verticalAlign=top;" vertex="1" parent="1">
          <mxGeometry x="270" y="500" width="120" height="20" as="geometry" />
        </mxCell>
        <mxCell id="BLmyIP-7RwuMe4oR3W1--32" value="manage rooms&amp;nbsp;&amp;nbsp;" style="rounded=1;whiteSpace=wrap;html=1;verticalAlign=top;" vertex="1" parent="1">
          <mxGeometry x="270" y="530" width="120" height="20" as="geometry" />
        </mxCell>
        <mxCell id="BLmyIP-7RwuMe4oR3W1--33" value="manage services" style="rounded=1;whiteSpace=wrap;html=1;verticalAlign=top;" vertex="1" parent="1">
          <mxGeometry x="270" y="560" width="120" height="20" as="geometry" />
        </mxCell>
        <mxCell id="BLmyIP-7RwuMe4oR3W1--34" value="" style="endArrow=classic;html=1;rounded=0;entryX=0;entryY=0.5;entryDx=0;entryDy=0;endFill=1;" edge="1" parent="1" target="BLmyIP-7RwuMe4oR3W1--32">
          <mxGeometry width="50" height="50" relative="1" as="geometry">
            <mxPoint x="250" y="540" as="sourcePoint" />
            <mxPoint x="310" y="610" as="targetPoint" />
          </mxGeometry>
        </mxCell>
        <mxCell id="BLmyIP-7RwuMe4oR3W1--35" value="" style="endArrow=classic;html=1;rounded=0;entryX=0;entryY=0.5;entryDx=0;entryDy=0;endFill=1;" edge="1" parent="1" target="BLmyIP-7RwuMe4oR3W1--33">
          <mxGeometry width="50" height="50" relative="1" as="geometry">
            <mxPoint x="250" y="570" as="sourcePoint" />
            <mxPoint x="330" y="590" as="targetPoint" />
          </mxGeometry>
        </mxCell>
        <mxCell id="BLmyIP-7RwuMe4oR3W1--36" value="" style="endArrow=classic;html=1;rounded=0;entryX=0;entryY=0.5;entryDx=0;entryDy=0;endFill=1;" edge="1" parent="1">
          <mxGeometry width="50" height="50" relative="1" as="geometry">
            <mxPoint x="250" y="600" as="sourcePoint" />
            <mxPoint x="270" y="600" as="targetPoint" />
          </mxGeometry>
        </mxCell>
        <mxCell id="BLmyIP-7RwuMe4oR3W1--37" value="" style="endArrow=none;html=1;rounded=0;" edge="1" parent="1">
          <mxGeometry width="50" height="50" relative="1" as="geometry">
            <mxPoint x="250" y="600" as="sourcePoint" />
            <mxPoint x="250" y="560" as="targetPoint" />
          </mxGeometry>
        </mxCell>
        <mxCell id="BLmyIP-7RwuMe4oR3W1--38" value="generate report" style="rounded=1;whiteSpace=wrap;html=1;verticalAlign=top;" vertex="1" parent="1">
          <mxGeometry x="270" y="430.2" width="120" height="20" as="geometry" />
        </mxCell>
        <mxCell id="BLmyIP-7RwuMe4oR3W1--39" value="" style="endArrow=classic;html=1;rounded=0;entryX=-0.002;entryY=0.55;entryDx=0;entryDy=0;endFill=1;entryPerimeter=0;" edge="1" parent="1" target="BLmyIP-7RwuMe4oR3W1--38">
          <mxGeometry width="50" height="50" relative="1" as="geometry">
            <mxPoint x="250" y="440.2" as="sourcePoint" />
            <mxPoint x="280" y="420.2" as="targetPoint" />
            <Array as="points">
              <mxPoint x="260" y="440.2" />
            </Array>
          </mxGeometry>
        </mxCell>
        <mxCell id="BLmyIP-7RwuMe4oR3W1--40" value="manage booking" style="rounded=1;whiteSpace=wrap;html=1;verticalAlign=top;" vertex="1" parent="1">
          <mxGeometry x="270" y="460" width="120" height="20" as="geometry" />
        </mxCell>
        <mxCell id="BLmyIP-7RwuMe4oR3W1--41" value="" style="endArrow=classic;html=1;rounded=0;entryX=0;entryY=0.5;entryDx=0;entryDy=0;endFill=1;" edge="1" parent="1" target="BLmyIP-7RwuMe4oR3W1--40">
          <mxGeometry width="50" height="50" relative="1" as="geometry">
            <mxPoint x="250" y="470" as="sourcePoint" />
            <mxPoint x="270" y="470.4" as="targetPoint" />
            <Array as="points" />
          </mxGeometry>
        </mxCell>
        <mxCell id="BLmyIP-7RwuMe4oR3W1--42" value="" style="endArrow=none;html=1;rounded=0;" edge="1" parent="1">
          <mxGeometry width="50" height="50" relative="1" as="geometry">
            <mxPoint x="250" y="470" as="sourcePoint" />
            <mxPoint x="250" y="440" as="targetPoint" />
          </mxGeometry>
        </mxCell>
        <mxCell id="BLmyIP-7RwuMe4oR3W1--43" value="manage events" style="rounded=1;whiteSpace=wrap;html=1;verticalAlign=top;" vertex="1" parent="1">
          <mxGeometry x="270" y="590" width="120" height="20" as="geometry" />
        </mxCell>
        <mxCell id="BLmyIP-7RwuMe4oR3W1--45" value="" style="endArrow=classic;html=1;rounded=0;endFill=1;" edge="1" parent="1">
          <mxGeometry width="50" height="50" relative="1" as="geometry">
            <mxPoint x="174.71" y="350" as="sourcePoint" />
            <mxPoint x="174.71" y="310" as="targetPoint" />
          </mxGeometry>
        </mxCell>
        <mxCell id="BLmyIP-7RwuMe4oR3W1--46" value="" style="endArrow=classic;html=1;rounded=0;endFill=1;" edge="1" parent="1">
          <mxGeometry width="50" height="50" relative="1" as="geometry">
            <mxPoint x="174.71" y="500" as="sourcePoint" />
            <mxPoint x="174.71" y="460" as="targetPoint" />
          </mxGeometry>
        </mxCell>
      </root>
    </mxGraphModel>
  </diagram>
</mxfile>
